<?xml version="1.0" encoding="iso-8859-1"?>
<!-- Generator: Adobe Illustrator 16.0.0, SVG Export Plug-In . SVG Version: 6.00 Build 0)  -->
<!DOCTYPE svg PUBLIC "-//W3C//DTD SVG 1.1//EN" "http://www.w3.org/Graphics/SVG/1.1/DTD/svg11.dtd">
<svg version="1.1" id="&#x56FE;&#x5C42;_1" xmlns="http://www.w3.org/2000/svg" xmlns:xlink="http://www.w3.org/1999/xlink" x="0px"
	 y="0px" width="111.106px" height="100.312px" viewBox="0 0 111.106 100.312" style="enable-background:new 0 0 111.106 100.312;"
	 xml:space="preserve">
<path style="fill:#FFA4A4;" d="M8.31,79.082c-4.822,5.45-7.909,11.27-8.281,15.578c-0.105,1.392,0.086,2.507,0.549,3.363
	c0.044,0.101,0.181,0.377,0.424,0.653c0.251,0.287,0.479,0.447,0.528,0.479c0.809,0.642,1.878,1.006,3.28,1.12
	c4.29,0.343,10.536-1.747,16.702-5.616c4.985-3.127,10.085-7.692,17.14-14.002c1.205-1.07,2.461-2.199,3.798-3.377l12.27,4.805
	l-0.036,0.033c-0.564,0.486-0.924,1.191-0.974,1.906c-0.071,0.749,0.178,1.506,0.656,2.066l2.083,2.471
	c0.486,0.572,1.185,0.928,1.932,0.99c0.759,0.063,1.496-0.17,2.067-0.66l3.683-3.123l1.752,0.688
	c-0.428,0.459-0.691,1.06-0.74,1.666c-0.063,0.758,0.168,1.496,0.663,2.069l2.094,2.478c0.476,0.563,1.174,0.922,1.935,0.982
	c0.754,0.065,1.484-0.169,2.048-0.666l3.372-2.859l12.487,4.883c0.284,0.112,0.579,0.183,0.904,0.209
	c0.911,0.065,1.784-0.207,2.448-0.764l4.873-4.131c0.555-0.471,0.892-1.131,0.945-1.785c0.09-0.968-0.367-1.904-1.185-2.432
	L70.042,68.854c-0.115-0.08-0.481-0.394-0.609-0.545l-7.043-8.307c7.803-6.966,14.801-13.77,20.303-19.73
	c0.516-0.551,1.004-1.097,1.482-1.634l20.668,3.608c0.096,0.025,0.21,0.045,0.359,0.057c0.954,0.052,1.917-0.24,2.668-0.854
	l2.271-1.925c0.56-0.468,0.908-1.131,0.953-1.793c0.1-1.01-0.44-1.995-1.322-2.476l-14.078-8.164
	c-0.117-0.074-0.424-0.338-0.521-0.452l-1.116-1.308c0.468-1.035,0.738-1.954,0.814-2.762c0.09-1.092-0.188-2.057-0.799-2.789
	l-0.052-0.048l-0.017-0.013c-0.63-0.725-1.502-1.141-2.604-1.232c-0.805-0.048-1.733,0.063-2.841,0.354l-1.13-1.337
	c-0.09-0.104-0.293-0.449-0.345-0.577L81.348,1.743c-0.347-0.971-1.214-1.65-2.208-1.732l-0.018-0.002
	c-0.687-0.058-1.37,0.17-1.914,0.631l-2.33,1.982c-0.687,0.614-1.144,1.511-1.23,2.487c-0.01,0.115-0.018,0.213-0.013,0.256
	l0.175,21.062c-0.607,0.375-1.219,0.778-1.854,1.187c-6.791,4.461-14.637,10.264-22.775,16.802l-7.049-8.311
	c-0.112-0.137-0.373-0.537-0.439-0.703L28.891,7.3c-0.386-0.901-1.221-1.512-2.2-1.593c-0.696-0.056-1.387,0.161-1.932,0.64
	l-4.91,4.153c-0.641,0.57-1.035,1.372-1.119,2.286c-0.027,0.31-0.004,0.61,0.052,0.891l2.777,13.124l-3.376,2.862
	c-0.569,0.476-0.929,1.183-0.991,1.924c-0.062,0.748,0.171,1.477,0.656,2.059l2.103,2.477c0.484,0.564,1.183,0.923,1.921,0.985
	c0.636,0.05,1.27-0.108,1.787-0.448l0.379,1.842l-3.678,3.117c-0.563,0.487-0.924,1.186-0.985,1.934
	c-0.064,0.75,0.171,1.478,0.656,2.05l2.085,2.47c0.486,0.569,1.19,0.932,1.941,0.991c0.747,0.063,1.503-0.177,2.057-0.663
	l0.03-0.016l2.735,12.891c-1.406,1.133-2.737,2.215-4.01,3.234C17.508,70.421,12.19,74.692,8.31,79.082L8.31,79.082z M8.31,79.082"
	/>
<g>
</g>
<g>
</g>
<g>
</g>
<g>
</g>
<g>
</g>
<g>
</g>
<g>
</g>
<g>
</g>
<g>
</g>
<g>
</g>
<g>
</g>
<g>
</g>
<g>
</g>
<g>
</g>
<g>
</g>
</svg>
