<?xml version="1.0" encoding="iso-8859-1"?>
<!-- Generator: Adobe Illustrator 16.0.0, SVG Export Plug-In . SVG Version: 6.00 Build 0)  -->
<!DOCTYPE svg PUBLIC "-//W3C//DTD SVG 1.1//EN" "http://www.w3.org/Graphics/SVG/1.1/DTD/svg11.dtd">
<svg version="1.1" id="&#x56FE;&#x5C42;_1" xmlns="http://www.w3.org/2000/svg" xmlns:xlink="http://www.w3.org/1999/xlink" x="0px"
	 y="0px" width="621.011px" height="988.724px" viewBox="0 0 621.011 988.724" style="enable-background:new 0 0 621.011 988.724;"
	 xml:space="preserve">
<g>
	<g>
		<g>
			<path style="fill:none;stroke:#FFA4A4;stroke-width:2;stroke-miterlimit:10;" d="M154.996,988.549c0,0-0.121-0.681-0.313-1.971"
				/>
			<path style="fill:none;stroke:#FFA4A4;stroke-width:2;stroke-miterlimit:10;stroke-dasharray:4.0066,4.0066;" d="M154.14,982.613
				c-3.813-30.31-14.313-168.433,101.571-221.427c125.069-57.194,146.836,37.178,93.431,60.287
				c-43.259,18.719-154.555-96.759-25.101-182.535c129.453-85.777,307.354-110.586,295.396-297.435
				C606.682,142.124,436.744,60.42,377.773,116.352c-58.973,55.932,16.617,138.213,70.225,54.836
				c53.4-83.059-171.551-290.623-444.229-75.781"/>
			<path style="fill:none;stroke:#FFA4A4;stroke-width:2;stroke-miterlimit:10;" d="M2.191,96.654
				c-0.522,0.415-1.044,0.83-1.567,1.247"/>
		</g>
	</g>
</g>
<g>
</g>
<g>
</g>
<g>
</g>
<g>
</g>
<g>
</g>
<g>
</g>
<g>
</g>
<g>
</g>
<g>
</g>
<g>
</g>
<g>
</g>
<g>
</g>
<g>
</g>
<g>
</g>
<g>
</g>
</svg>
