<?xml version="1.0" encoding="iso-8859-1"?>
<!-- Generator: Adobe Illustrator 16.0.0, SVG Export Plug-In . SVG Version: 6.00 Build 0)  -->
<!DOCTYPE svg PUBLIC "-//W3C//DTD SVG 1.1//EN" "http://www.w3.org/Graphics/SVG/1.1/DTD/svg11.dtd">
<svg version="1.1" id="&#x56FE;&#x5C42;_1" xmlns="http://www.w3.org/2000/svg" xmlns:xlink="http://www.w3.org/1999/xlink" x="0px"
	 y="0px" width="23.73px" height="26.041px" viewBox="0 0 23.73 26.041" style="enable-background:new 0 0 23.73 26.041;"
	 xml:space="preserve">
<g style="opacity:0.3;">
	<path style="fill:#231815;" d="M2.904,9.96c-0.392,0.499-0.902,1.008-1.532,1.526L0,10.014c0.578-0.479,0.987-0.861,1.229-1.146
		l0.41-0.481L2.625,8.38V2.715h0.707l0.006,5.671h0.368C3.421,8.521,3.21,8.707,3.074,8.944C2.938,9.183,2.87,9.38,2.872,9.538
		C2.873,9.696,2.885,9.838,2.904,9.96z M0.79,0.345h4.413v4.514H4.811L4.799,8H3.694V2.311L2.287,2.299v5.708H0.79V0.345z
		 M4.276,8.606c0.174,0,0.346,0.045,0.514,0.137c0.168,0.091,0.302,0.22,0.401,0.389C5.291,9.3,5.34,9.478,5.34,9.663
		c-0.005,0.19-0.054,0.368-0.148,0.535c-0.096,0.166-0.225,0.297-0.387,0.392c-0.161,0.095-0.338,0.14-0.528,0.137
		c-0.189,0-0.366-0.048-0.531-0.143s-0.294-0.226-0.39-0.39C3.261,10.03,3.212,9.854,3.21,9.663
		C3.209,9.474,3.257,9.297,3.355,9.135c0.1-0.17,0.233-0.3,0.404-0.39C3.931,8.656,4.103,8.61,4.276,8.606z M5.161,8.576V5.263
		h1.574v-5.18h2.251v1.734h2.28v2.115h-2.28v1.33h2.066v5.85H5.161V10.75c0.345-0.297,0.519-0.614,0.52-0.95
		c0.002-0.336-0.047-0.59-0.148-0.76C5.432,8.87,5.309,8.716,5.161,8.576z M8.975,9.069V7.258h-1.64v1.812H8.975z"/>
	<path style="fill:#231815;" d="M16.725,0v1.788h2.008v8.576h-6.094V1.788h1.96V0H16.725z M15.003,5.138V3.636h-0.582v1.502H15.003z
		 M15.003,8.404V6.86h-0.582v1.544H15.003z M16.368,3.636v1.502h0.576V3.636H16.368z M16.944,6.86h-0.576v1.544h0.576V6.86z
		 M20.995,2.489h-0.517l-0.665,2.429l1.045,2.565h-0.968v2.798h0.908v0.985h-2.411v-0.522h0.725V1.408h-0.725V0.505h4.354l0.7,0.761
		l-1.051,3.479c0.254,0.574,0.45,1.041,0.588,1.399c0.139,0.358,0.254,0.727,0.345,1.104s0.132,0.766,0.125,1.161
		c-0.017,0.555-0.137,0.938-0.362,1.149c-0.226,0.211-0.523,0.317-0.892,0.317l-1.918,0.006V7.864h0.76
		c0.124,0,0.217-0.035,0.282-0.104s0.063-0.227-0.009-0.472c-0.078-0.262-0.181-0.541-0.306-0.838s-0.354-0.808-0.692-1.532
		L20.995,2.489z"/>
	<path style="fill:#231815;" d="M3.492,25.399c0.19-0.27,0.285-0.59,0.285-0.962c-0.004-0.182-0.035-0.372-0.095-0.57l0.63-0.006
		c0.154,0,0.254-0.022,0.297-0.068c0.043-0.045,0.065-0.161,0.065-0.348v-0.267H3.243c-0.376-0.333-0.787-0.499-1.232-0.499
		s-0.854,0.166-1.227,0.499H0.268v-1.574H11.32v1.574h-0.736c-0.373-0.333-0.79-0.498-1.253-0.496
		c-0.464,0.002-0.867,0.169-1.212,0.502H7.104v1.253c0,0.226-0.011,0.425-0.029,0.597c-0.02,0.172-0.088,0.347-0.202,0.523
		c-0.114,0.176-0.479,0.264-1.093,0.264l-2.287,0.012V25.399z M3.309,16.224h-2.94v-1.515h10.875v1.515H8.161v0.529h2.541v2.571
		H0.885v-2.571h2.424V16.224z M2.014,23.119c0.219,0,0.432,0.057,0.642,0.169c0.209,0.113,0.376,0.275,0.499,0.487
		s0.184,0.433,0.184,0.662c-0.004,0.233-0.063,0.454-0.181,0.662s-0.278,0.371-0.481,0.49c-0.203,0.118-0.425,0.176-0.662,0.172
		c-0.237,0-0.459-0.06-0.662-0.178c-0.203-0.119-0.367-0.282-0.487-0.487s-0.18-0.426-0.175-0.659c0-0.229,0.061-0.45,0.181-0.662
		s0.287-0.374,0.499-0.484C1.582,23.181,1.795,23.123,2.014,23.119z M1.206,21.136v-1.474h9.033v1.474H1.206z M2.744,17.91v0.529
		h0.944V17.91H2.744z M5.173,16.224v0.529h1.123v-0.529H5.173z M5.173,17.91v0.529h1.123V17.91H5.173z M7.78,17.91v0.529h0.962
		V17.91H7.78z M9.354,23.119c0.214,0.004,0.426,0.062,0.639,0.172c0.212,0.11,0.378,0.272,0.499,0.484
		c0.12,0.212,0.183,0.435,0.184,0.668c0.002,0.233-0.057,0.451-0.175,0.653c-0.124,0.205-0.287,0.368-0.49,0.487
		c-0.203,0.118-0.423,0.178-0.656,0.178c-0.242,0.004-0.465-0.054-0.668-0.172c-0.204-0.119-0.364-0.282-0.481-0.49
		s-0.177-0.428-0.178-0.659c-0.002-0.231,0.058-0.451,0.181-0.656c0.123-0.218,0.29-0.383,0.499-0.496
		C8.916,23.176,9.133,23.119,9.354,23.119z"/>
	<path style="fill:#231815;" d="M16.992,16.224h1.199l0.761,0.826c-0.088,0.482-0.203,1.093-0.348,1.832
		c-0.144,0.738-0.376,1.489-0.692,2.254l-0.386,0.962c0.325,0.605,0.634,0.954,0.927,1.045l0.362,0.137v0.979H22.1v-0.979h1.509
		v2.459l-3.736,0.029c-0.74,0.009-1.272-0.024-1.597-0.098c-0.325-0.073-0.669-0.227-1.031-0.46
		c-0.362-0.234-0.774-0.645-1.238-1.229c-0.729,0.748-1.204,1.208-1.425,1.378l-0.861,0.683l-1.36-1.966
		c0.896-0.792,1.537-1.432,1.925-1.918l0.421-0.523l-0.944-1.342l1.806-1.479l0.499,0.742l0.362-1.146h-0.339l-0.16,0.166
		l-0.303-0.386l-2.446,2.008l0.76,1.099l-0.196,0.279l-1.604-1.283c0.237-0.348,0.501-0.745,0.79-1.19
		c0.29-0.446,0.625-1.054,1.007-1.823c0.382-0.771,0.811-1.724,1.286-2.86l2.227,0.844L16.992,16.224z M21.702,17.845
		c-0.412,0.182-0.798,0.745-1.158,1.688c0,0.324,0.09,0.642,0.27,0.953c0.18,0.311,0.477,0.555,0.889,0.733v2.565h-2.388v-9.205
		h2.388V17.845z M22.349,18.147c0.23,0.004,0.453,0.063,0.669,0.179c0.215,0.115,0.387,0.285,0.517,0.511
		c0.129,0.226,0.194,0.459,0.196,0.701c0.001,0.241-0.062,0.471-0.188,0.688s-0.296,0.387-0.508,0.508
		c-0.213,0.121-0.441,0.181-0.687,0.181c-0.249,0.004-0.48-0.056-0.694-0.181s-0.383-0.294-0.508-0.508s-0.186-0.445-0.182-0.694
		c0-0.242,0.063-0.475,0.188-0.698s0.297-0.395,0.517-0.511C21.889,18.206,22.116,18.147,22.349,18.147z"/>
</g>
<g>
</g>
<g>
</g>
<g>
</g>
<g>
</g>
<g>
</g>
<g>
</g>
<g>
</g>
<g>
</g>
<g>
</g>
<g>
</g>
<g>
</g>
<g>
</g>
<g>
</g>
<g>
</g>
<g>
</g>
</svg>
