<?xml version="1.0" encoding="utf-8"?>
<!-- Generator: Adobe Illustrator 16.0.0, SVG Export Plug-In . SVG Version: 6.00 Build 0)  -->
<!DOCTYPE svg PUBLIC "-//W3C//DTD SVG 1.1//EN" "http://www.w3.org/Graphics/SVG/1.1/DTD/svg11.dtd">
<svg version="1.1" id="图层_1" xmlns="http://www.w3.org/2000/svg" xmlns:xlink="http://www.w3.org/1999/xlink" x="0px" y="0px"
	 width="50.418px" height="66.285px" viewBox="0 0 50.418 66.285" enable-background="new 0 0 50.418 66.285" xml:space="preserve">
<g>
	<path fill="#FFC5C5" d="M25.209,24.034L2.25,2.25 M48.168,2.25L25.209,24.034 M25.209,44.035L2.25,22.25 M48.168,22.25
		L25.209,44.035 M2.25,42.25l22.959,21.785 M48.168,42.25L25.209,64.035"/>
	<path fill="#FF6666" d="M25.209,66.285C25.209,66.285,25.209,66.285,25.209,66.285c-0.579,0-1.143-0.227-1.559-0.627L0.701,43.881
		c-2.105-1.998,0.992-5.261,3.098-3.264l21.41,20.315l21.41-20.315c2.104-1.998,5.202,1.267,3.098,3.264L26.768,65.658
		C26.351,66.058,25.787,66.285,25.209,66.285z M25.209,46.285C25.209,46.285,25.209,46.285,25.209,46.285
		c-0.338,0-0.673-0.076-0.977-0.223c-0.001,0-0.001,0.001-0.002-0.001c-0.209-0.101-0.405-0.235-0.581-0.404L0.701,23.882
		c-2.105-1.998,0.992-5.261,3.098-3.265l21.41,20.315l21.41-20.315c2.105-1.997,5.202,1.267,3.098,3.265L26.768,45.658
		C26.352,46.057,25.786,46.285,25.209,46.285z M25.209,26.284C25.209,26.284,25.209,26.284,25.209,26.284
		c-0.579,0-1.143-0.226-1.56-0.627L0.701,3.882c-2.105-1.998,0.992-5.261,3.098-3.265l21.41,20.315l21.41-20.315
		c2.105-1.997,5.202,1.267,3.098,3.265L26.768,25.657C26.352,26.058,25.787,26.284,25.209,26.284z"/>
</g>
</svg>
